<svg width="121" height="38" viewBox="0 0 121 38" fill="none" xmlns="http://www.w3.org/2000/svg">
<path d="M118.64 37.3982H0.576172C1.38314 33.5212 4.08474 29.1881 7.78629 27.7321C9.63696 27.0185 11.6329 26.7639 13.6035 26.99C15.574 27.2161 17.4604 27.9161 19.1014 29.0302C24.2207 18.94 32.3662 10.7024 42.3983 5.47018C52.3101 0.207319 64.6076 -1.14349 74.9754 3.22468C85.3433 7.59285 93.22 18.0308 93.3779 29.2934C96.7675 26.1923 100.747 23.8058 105.079 22.2762C107.066 21.4925 109.218 21.2184 111.338 21.4789C113.459 21.7393 115.48 22.526 117.219 23.7674C120.534 26.4339 121.446 34.1878 118.64 37.3982Z" fill="#FF2C1F"/>
</svg>
