<svg width="217" height="78" viewBox="0 0 217 78" fill="none" xmlns="http://www.w3.org/2000/svg">
<path d="M210.675 77.1038H1.17867C-3.1895 58.0347 8.52915 37.8078 26.8088 30.8257C45.0885 23.8437 67.8942 32.2116 77.3322 49.351C78.1306 47.1687 79.5552 45.2706 81.4276 43.8944C83.3 42.5182 85.5368 41.7252 87.8579 41.6146C90.2632 41.5978 92.6234 42.2672 94.6617 43.5442C96.7 44.8213 98.3319 46.653 99.366 48.8247C104.752 32.58 115.663 17.6686 130.259 8.73927C144.855 -0.190043 164.047 -2.24256 179.256 5.5991C194.466 13.4408 204.185 31.8257 199.922 48.4037C205.904 48.0002 213.377 52.8069 215.359 58.4733C217.342 64.1396 215.587 73.6654 210.675 77.1038Z" fill="#FF2C1F"/>
</svg>
