<svg width="1728" height="228" viewBox="0 0 1728 228" fill="none" xmlns="http://www.w3.org/2000/svg">
<path d="M2122 6.61006V332.786H-283.504V0.509277L-236.734 14.1284C-236.734 14.1284 -182.471 26.0769 -174.453 27.6211C-166.436 29.1653 -95.8491 33.8231 -95.8491 33.8231H-26.9131C-18.8954 33.8231 49.8048 17.1662 49.8048 17.1662C49.8048 17.1662 128.645 36.152 137.475 33.8231C146.305 31.4941 246.525 34.0256 246.525 34.0256C246.525 34.0256 293.295 28.7855 299.976 34.0256C306.658 39.2657 351.567 47.8473 351.567 47.8473L576.061 33.899C576.061 33.899 674.159 24.6087 691.347 24.229C708.536 23.8492 755.489 18.4066 764.03 24.229C772.572 30.0513 916.13 14.5335 919.326 24.229C922.523 33.9244 1054.81 47.8473 1054.81 47.8473L1294.56 33.899C1294.56 33.899 1330.11 22.2797 1364.86 24.229C1399.6 26.1782 1488.81 47.8473 1488.81 47.8473C1488.81 47.8473 1542.27 49.3915 1548.69 47.8473C1555.1 46.3031 1619.25 35.4432 1638.5 37.7215C1657.76 39.9998 1751.56 33.8484 1766.89 37.7215C1782.22 41.5946 1882.36 48.4801 1882.36 48.4801C1882.36 48.4801 1923.23 55.3657 1933.66 48.4801C1944.09 41.5946 2085.47 14.1538 2085.47 14.1538L2122 6.61006Z" fill="black"/>
</svg>
